<svg width="35" height="34" viewBox="0 0 35 34" fill="none" xmlns="http://www.w3.org/2000/svg">
<path fill-rule="evenodd" clip-rule="evenodd" d="M17.5285 12.92L14.5677 28.6875H12.4002L15.446 12.495L6.54933 10.6533C6.62016 9.9025 6.776 9.19417 7.04516 8.585L16.9052 10.625L29.896 13.2883V15.47L17.5285 12.92ZM24.1868 3.1875H12.2302C8.37683 3.1875 5.586 5.42583 4.72183 8.9675C4.6935 9.03833 4.66516 9.10917 4.651 9.18C4.64958 9.18708 4.65241 9.19275 4.651 9.19983V9.2225C4.49516 9.9025 4.396 10.6108 4.396 11.3758V22.6242C4.396 27.5258 7.541 30.8125 12.2302 30.8125H24.1868C28.876 30.8125 32.021 27.5258 32.021 22.6242V11.3758C32.021 6.47417 28.876 3.1875 24.1868 3.1875Z" fill="#1D757D"/>
</svg>
