<svg width="35" height="34" viewBox="0 0 35 34" fill="none" xmlns="http://www.w3.org/2000/svg">
<path fill-rule="evenodd" clip-rule="evenodd" d="M6.49902 29.4825C6.50186 29.4839 6.50327 29.4868 6.50611 29.4882C7.28527 30.0123 8.20611 30.2815 9.15527 30.2815H25.8436C26.8777 30.2815 27.8836 29.9557 28.7052 29.3323C28.7081 29.3309 28.7123 29.3267 28.7123 29.3267L18.3905 22.8766L6.49902 29.4825Z" fill="#1D757D"/>
<path fill-rule="evenodd" clip-rule="evenodd" d="M23.2229 17.7296C23.2229 18.3104 22.7554 18.7921 22.1604 18.7921C21.5796 18.7921 21.0979 18.3104 21.0979 17.7296V15.3496H23.2229V17.7296ZM30.6321 24.4446L29.3146 17.8571C28.8612 15.5904 26.8496 13.9329 24.5262 13.9329H23.2229V11.3262C24.8379 10.8587 26.0421 9.35708 26.0421 7.58625C26.0421 5.46125 24.2996 3.71875 22.1746 3.71875C20.0354 3.71875 18.2929 5.46125 18.2929 7.58625C18.2929 9.35708 19.4829 10.8446 21.0979 11.3121V13.9329H10.4729C9.8354 13.9329 9.21207 14.0604 8.65957 14.2871L8.65674 14.2885L30.1391 27.7114C30.6746 26.7198 30.8587 25.5609 30.6321 24.4446Z" fill="#1D757D"/>
<path fill-rule="evenodd" clip-rule="evenodd" d="M6.78952 15.6285V15.6328C6.23702 16.2561 5.85452 17.007 5.68452 17.857L4.36702 24.4445C4.12618 25.6345 4.35285 26.867 4.96202 27.9011L4.96343 27.904L16.3307 21.5899L6.78952 15.6285Z" fill="#1D757D"/>
</svg>
