<svg width="35" height="34" viewBox="0 0 35 34" fill="none" xmlns="http://www.w3.org/2000/svg">
<path fill-rule="evenodd" clip-rule="evenodd" d="M23.5448 19.9525C23.5448 20.539 23.0688 21.015 22.4823 21.015C21.8958 21.015 21.4198 20.539 21.4198 19.9525V14.0479C21.4198 13.4614 21.8958 12.9854 22.4823 12.9854C23.0688 12.9854 23.5448 13.4614 23.5448 14.0479V19.9525ZM17.9135 16.8614L16.5507 18.1718C16.4997 18.2199 16.4784 18.2865 16.4898 18.3503L16.8128 20.2019C16.8538 20.4484 16.7958 20.6906 16.6527 20.8904C16.5082 21.0901 16.2943 21.2219 16.052 21.2615C15.8551 21.2955 15.6553 21.2629 15.474 21.1666L13.7924 20.2954C13.7287 20.2628 13.6564 20.2614 13.587 20.2954L11.9026 21.168C11.768 21.2403 11.6207 21.2743 11.4762 21.2743C11.1475 21.2743 10.8273 21.0972 10.6616 20.7855C10.5667 20.607 10.5341 20.4002 10.5667 20.2033L10.8897 18.3517C10.901 18.2865 10.8798 18.2199 10.8302 18.1732L9.46592 16.8614C9.28884 16.6928 9.18967 16.4661 9.18542 16.2224C9.17975 15.9788 9.27042 15.7479 9.44042 15.5722C9.5835 15.4234 9.77334 15.3271 9.97875 15.3002L11.8601 15.0282C11.9295 15.0197 11.9904 14.9758 12.0216 14.9149L12.8659 13.2291C12.9821 13.0066 13.1748 12.8437 13.4099 12.7701C13.6451 12.6936 13.8958 12.7148 14.1168 12.8296C14.2854 12.9174 14.4228 13.0534 14.5121 13.2248L14.5135 13.2305L15.3564 14.9149C15.3876 14.9758 15.4485 15.0197 15.5179 15.0282L17.4049 15.3002C17.6429 15.3314 17.8568 15.456 18.0056 15.6501C18.1543 15.8442 18.2181 16.0836 18.1841 16.3244C18.1586 16.527 18.0623 16.7183 17.9135 16.8614ZM30.3122 19.3561C30.1847 19.2527 29.9863 19.1479 29.2454 18.7583C28.5796 18.4069 28.1801 17.7482 28.1801 16.9974C28.1801 16.2479 28.5782 15.592 29.3233 15.201C30.0203 14.8355 30.1889 14.7463 30.3164 14.6443C30.7159 14.3213 30.8236 14.1428 30.9256 13.6356C30.9511 13.5138 30.9582 13.3112 30.9582 12.9046C30.9582 11.3038 30.9582 10.4991 30.7499 9.77523C30.2413 8.02423 28.8898 6.67415 27.1374 6.16415C26.4135 5.95447 25.6103 5.95447 24.008 5.95447H23.5448V10.3461C23.5448 10.9326 23.0688 11.4086 22.4823 11.4086C21.8958 11.4086 21.4198 10.9326 21.4198 10.3461V5.95447H10.9945C9.39509 5.95447 8.59325 5.95447 7.87075 6.16415C6.11409 6.67272 4.76259 8.02565 4.254 9.78373C4.04575 10.5091 4.04575 11.3095 4.04717 12.9089C4.05567 14.6358 4.05142 16.3443 4.04717 18.0514L4.0415 21.1043C4.0415 22.698 4.0415 23.4984 4.24975 24.2195C4.75834 25.9776 6.11125 27.3305 7.86934 27.8391C8.59042 28.0474 9.39084 28.0474 10.9846 28.0474H21.4198V23.6543C21.4198 23.0678 21.8958 22.5918 22.4823 22.5918C23.0688 22.5918 23.5448 23.0678 23.5448 23.6543V28.0474H24.008C25.6088 28.0474 26.4121 28.0474 27.1374 27.8363C28.8898 27.3277 30.2413 25.9776 30.7485 24.2266C30.9596 23.4984 30.9582 22.6966 30.9568 21.0972C30.9568 20.6963 30.9497 20.4965 30.9256 20.3648C30.8236 19.8619 30.7159 19.6834 30.3122 19.3561Z" fill="#1D757D"/>
<path fill-rule="evenodd" clip-rule="evenodd" d="M23.5448 19.9525C23.5448 20.539 23.0688 21.015 22.4823 21.015C21.8958 21.015 21.4198 20.539 21.4198 19.9525V14.0479C21.4198 13.4614 21.8958 12.9854 22.4823 12.9854C23.0688 12.9854 23.5448 13.4614 23.5448 14.0479V19.9525ZM17.9135 16.8614L16.5507 18.1718C16.4997 18.2199 16.4784 18.2865 16.4898 18.3503L16.8128 20.2019C16.8538 20.4484 16.7958 20.6906 16.6527 20.8904C16.5082 21.0901 16.2943 21.2219 16.052 21.2615C15.8551 21.2955 15.6553 21.2629 15.474 21.1666L13.7924 20.2954C13.7287 20.2628 13.6564 20.2614 13.587 20.2954L11.9026 21.168C11.768 21.2403 11.6207 21.2743 11.4762 21.2743C11.1475 21.2743 10.8273 21.0972 10.6616 20.7855C10.5667 20.607 10.5341 20.4002 10.5667 20.2033L10.8897 18.3517C10.901 18.2865 10.8798 18.2199 10.8302 18.1732L9.46592 16.8614C9.28884 16.6928 9.18967 16.4661 9.18542 16.2224C9.17975 15.9788 9.27042 15.7479 9.44042 15.5722C9.5835 15.4234 9.77334 15.3271 9.97875 15.3002L11.8601 15.0282C11.9295 15.0197 11.9904 14.9758 12.0216 14.9149L12.8659 13.2291C12.9821 13.0066 13.1748 12.8437 13.4099 12.7701C13.6451 12.6936 13.8958 12.7148 14.1168 12.8296C14.2854 12.9174 14.4228 13.0534 14.5121 13.2248L14.5135 13.2305L15.3564 14.9149C15.3876 14.9758 15.4485 15.0197 15.5179 15.0282L17.4049 15.3002C17.6429 15.3314 17.8568 15.456 18.0056 15.6501C18.1543 15.8442 18.2181 16.0836 18.1841 16.3244C18.1586 16.527 18.0623 16.7183 17.9135 16.8614ZM30.3122 19.3561C30.1847 19.2527 29.9863 19.1479 29.2454 18.7583C28.5796 18.4069 28.1801 17.7482 28.1801 16.9974C28.1801 16.2479 28.5782 15.592 29.3233 15.201C30.0203 14.8355 30.1889 14.7463 30.3164 14.6443C30.7159 14.3213 30.8236 14.1428 30.9256 13.6356C30.9511 13.5138 30.9582 13.3112 30.9582 12.9046C30.9582 11.3038 30.9582 10.4991 30.7499 9.77523C30.2413 8.02423 28.8898 6.67415 27.1374 6.16415C26.4135 5.95447 25.6103 5.95447 24.008 5.95447H23.5448V10.3461C23.5448 10.9326 23.0688 11.4086 22.4823 11.4086C21.8958 11.4086 21.4198 10.9326 21.4198 10.3461V5.95447H10.9945C9.39509 5.95447 8.59325 5.95447 7.87075 6.16415C6.11409 6.67272 4.76259 8.02565 4.254 9.78373C4.04575 10.5091 4.04575 11.3095 4.04717 12.9089C4.05567 14.6358 4.05142 16.3443 4.04717 18.0514L4.0415 21.1043C4.0415 22.698 4.0415 23.4984 4.24975 24.2195C4.75834 25.9776 6.11125 27.3305 7.86934 27.8391C8.59042 28.0474 9.39084 28.0474 10.9846 28.0474H21.4198V23.6543C21.4198 23.0678 21.8958 22.5918 22.4823 22.5918C23.0688 22.5918 23.5448 23.0678 23.5448 23.6543V28.0474H24.008C25.6088 28.0474 26.4121 28.0474 27.1374 27.8363C28.8898 27.3277 30.2413 25.9776 30.7485 24.2266C30.9596 23.4984 30.9582 22.6966 30.9568 21.0972C30.9568 20.6963 30.9497 20.4965 30.9256 20.3648C30.8236 19.8619 30.7159 19.6834 30.3122 19.3561Z" fill="#1D757D"/>
</svg>
