<svg width="35" height="34" viewBox="0 0 35 34" fill="none" xmlns="http://www.w3.org/2000/svg">
<g clip-path="url(#clip0_2479_61)">
<path fill-rule="evenodd" clip-rule="evenodd" d="M27.0269 17.4369C25.4119 17.4369 23.8961 17.7627 22.6211 18.3152C27.0836 19.6044 30.2428 22.6927 30.3278 26.3052C32.6511 26.0077 35.1586 25.1294 35.1586 22.7352C35.1586 19.8594 31.4328 17.4369 27.0269 17.4369Z" fill="#1D757D"/>
<path fill-rule="evenodd" clip-rule="evenodd" d="M26.9842 15.3971H27.0126C30.0301 15.3971 32.4951 12.932 32.4951 9.92867C32.4951 6.91117 30.0301 4.44617 27.0126 4.44617C26.4176 4.44617 25.8509 4.54533 25.3126 4.71533C26.2901 6.16033 26.8567 7.90283 26.8567 9.787C26.8709 11.6995 26.2759 13.5412 25.1567 15.0712C25.7376 15.2837 26.3467 15.3971 26.9842 15.3971Z" fill="#1D757D"/>
<path fill-rule="evenodd" clip-rule="evenodd" d="M13.0726 18.3011C11.7976 17.7627 10.2818 17.4369 8.68098 17.4369C4.27515 17.4369 0.549316 19.8594 0.549316 22.7352C0.549316 25.1294 3.04265 25.9936 5.36598 26.3052C5.43681 22.6927 8.59598 19.6044 13.0726 18.3011Z" fill="#1D757D"/>
<path fill-rule="evenodd" clip-rule="evenodd" d="M8.68122 15.3971H8.72372C9.36122 15.3971 9.97039 15.2837 10.5512 15.0712C9.47456 13.5978 8.83706 11.7703 8.83706 9.787C8.83706 7.90283 9.40372 6.16033 10.3812 4.71533C9.84289 4.54533 9.27622 4.44617 8.68122 4.44617C5.66372 4.44617 3.21289 6.91117 3.21289 9.92867C3.21289 12.932 5.66372 15.3971 8.68122 15.3971Z" fill="#1D757D"/>
<path fill-rule="evenodd" clip-rule="evenodd" d="M17.8461 19.7561C12.2347 19.7561 7.49316 22.8104 7.49316 26.4258C7.49316 31.1008 15.2848 31.1008 17.8461 31.1008C22.2916 31.1008 28.202 30.6191 28.202 26.4555C28.202 22.8232 23.459 19.7561 17.8461 19.7561Z" fill="#1D757D"/>
<path fill-rule="evenodd" clip-rule="evenodd" d="M17.8477 16.6806H17.8945C19.7291 16.6749 21.4517 15.9538 22.7437 14.6519C24.0371 13.35 24.7455 11.6231 24.7384 9.79137C24.7384 5.99046 21.6486 2.89929 17.8477 2.89929C14.0482 2.89929 10.9585 5.99046 10.9585 9.79137C10.9585 13.5895 14.0482 16.6806 17.8477 16.6806Z" fill="#1D757D"/>
</g>
<defs>
<clipPath id="clip0_2479_61">
<rect width="34" height="34" fill="white" transform="translate(0.5)"/>
</clipPath>
</defs>
</svg>
