<svg width="92" height="99" viewBox="0 0 92 99" fill="none" xmlns="http://www.w3.org/2000/svg">
<path d="M67.1398 64.7569C78.6559 58.3204 87.4624 53.4163 88.215 53.0332C90.6236 51.7306 93.1075 48.2824 88.215 45.6005C86.6344 44.7577 78.129 40.0069 67.1398 33.8768L52.0107 49.3552L67.1398 64.7569Z" fill="#FFD400"/>
<path d="M52.0108 49.3552L3.68823 98.9318C4.81726 99.0851 6.09683 98.7786 7.60221 97.9357C10.7635 96.1733 44.3334 77.4767 67.1398 64.7569L52.0108 49.3552Z" fill="#FF3333"/>
<path d="M52.0108 49.3552L67.1398 33.8768C67.1398 33.8768 10.9893 2.69031 7.60216 0.851296C6.32259 0.0850423 4.89248 -0.144834 3.61292 0.0850422L52.0108 49.3552Z" fill="#48FF48"/>
<path d="M52.0108 49.3552L3.6129 0.0850525C1.65591 0.544805 0 2.30719 0 5.90859C0 11.6555 0 88.2809 0 93.1083C0 96.4032 1.27957 98.7786 3.68817 99.0084L52.0108 49.3552Z" fill="#3BCCFF"/>
</svg>
