<svg width="87" height="29" viewBox="0 0 87 29" fill="none" xmlns="http://www.w3.org/2000/svg">
<path d="M10.6679 22.3016C12.5585 17.4063 14.6887 13.173 16.3018 10.2311L22.2416 13.9376C22.7469 14.2529 22.7447 14.7654 22.2416 15.0794L10.6679 22.3016ZM0.352339 28.4958C0.137884 28.4193 0 28.1772 0 27.8077V1.20923C0 0.573685 0.411752 0.315417 0.914894 0.629385L15.6342 9.81446C11.9929 14.2658 5.85188 21.7729 0.352339 28.4958H0.352339Z" fill="#221F1B"/>
<path d="M30.9302 19.3481H31.9267V14.9847H37.0229V19.3481H38.0195V9.65161H37.0229V13.9596H31.9267V9.65161H30.9302V19.3481ZM46.4333 19.3481H47.4424V15.4972L51.1132 9.65161H49.9527L46.9505 14.4999L43.9735 9.65161H42.7625L46.4333 15.5111V19.3481ZM55.8562 19.3481V9.65161H59.1612C61.1543 9.65161 62.4661 10.8152 62.4661 12.7268V12.7545C62.4661 14.8462 60.8767 15.9267 58.9972 15.9267H56.8527V19.3481H55.8562ZM56.8527 14.9293H59.035C60.4983 14.9293 61.457 14.0705 61.457 12.7961V12.7684C61.457 11.3831 60.5109 10.6628 59.0855 10.6628H56.8527V14.9293ZM67.4362 19.3481H73.8822V18.3508H68.4328V14.957H73.2515V13.9596H68.4328V10.649H73.8191V9.65161H67.4362V19.3481ZM79.0415 19.3481V9.65161H82.8384C83.9232 9.65161 84.7936 10.0118 85.3486 10.6213C85.7775 11.0922 86.0298 11.771 86.0298 12.5329V12.5606C86.0298 14.1674 85.0207 15.1094 83.6331 15.3864L86.3452 19.3481H85.1216L82.5609 15.5803H80.038V19.3481H79.0415ZM80.038 14.5968H82.7501C84.0746 14.5968 85.0207 13.8488 85.0207 12.6021V12.5744C85.0207 11.3831 84.1881 10.6628 82.7627 10.6628H80.038V14.5968Z" fill="#221F1B" stroke="#221F1B" stroke-width="0.5"/>
</svg>
