<svg width="26" height="26" viewBox="0 0 26 26" fill="none" xmlns="http://www.w3.org/2000/svg">
<path d="M17.875 2.4375H8.125C6.61708 2.43911 5.17138 3.03885 4.10511 4.10511C3.03885 5.17138 2.43911 6.61708 2.4375 8.125V17.875C2.43911 19.3829 3.03885 20.8286 4.10511 21.8949C5.17138 22.9612 6.61708 23.5609 8.125 23.5625H17.875C19.3829 23.5609 20.8286 22.9612 21.8949 21.8949C22.9612 20.8286 23.5609 19.3829 23.5625 17.875V8.125C23.5609 6.61708 22.9612 5.17138 21.8949 4.10511C20.8286 3.03885 19.3829 2.43911 17.875 2.4375ZM13 17.875C12.0358 17.875 11.0933 17.5891 10.2916 17.0534C9.48991 16.5177 8.86506 15.7564 8.49609 14.8656C8.12711 13.9748 8.03057 12.9946 8.21867 12.0489C8.40677 11.1033 8.87107 10.2346 9.55285 9.55285C10.2346 8.87107 11.1033 8.40677 12.0489 8.21867C12.9946 8.03057 13.9748 8.12711 14.8656 8.49609C15.7564 8.86506 16.5177 9.48991 17.0534 10.2916C17.5891 11.0933 17.875 12.0358 17.875 13C17.8737 14.2925 17.3596 15.5317 16.4457 16.4457C15.5317 17.3596 14.2925 17.8737 13 17.875ZM19.0938 8.125C18.8527 8.125 18.6171 8.05352 18.4166 7.9196C18.2162 7.78569 18.06 7.59534 17.9678 7.37265C17.8755 7.14995 17.8514 6.9049 17.8984 6.66848C17.9454 6.43207 18.0615 6.21491 18.232 6.04446C18.4024 5.87402 18.6196 5.75794 18.856 5.71092C19.0924 5.66389 19.3374 5.68803 19.5601 5.78027C19.7828 5.87252 19.9732 6.02873 20.1071 6.22915C20.241 6.42957 20.3125 6.6652 20.3125 6.90625C20.3125 7.22948 20.1841 7.53948 19.9555 7.76804C19.727 7.9966 19.417 8.125 19.0938 8.125ZM16.25 13C16.25 13.6428 16.0594 14.2711 15.7023 14.8056C15.3452 15.3401 14.8376 15.7566 14.2437 16.0026C13.6499 16.2486 12.9964 16.313 12.366 16.1876C11.7355 16.0622 11.1564 15.7526 10.7019 15.2981C10.2474 14.8436 9.93785 14.2645 9.81245 13.634C9.68705 13.0036 9.75141 12.3501 9.99739 11.7563C10.2434 11.1624 10.6599 10.6548 11.1944 10.2977C11.7289 9.94061 12.3572 9.75 13 9.75C13.862 9.75 14.6886 10.0924 15.2981 10.7019C15.9076 11.3114 16.25 12.138 16.25 13Z" fill="#ED705A"/>
</svg>
