<svg width="1345" height="179" viewBox="0 0 1345 179" fill="none" xmlns="http://www.w3.org/2000/svg">
<path opacity="0.2" fill-rule="evenodd" clip-rule="evenodd" d="M1353.53 23.0352C1164.98 47.3774 1032.26 73.169 848.867 121.102C698.02 160.529 598.41 190.227 428.883 246.32C329.197 279.304 290.316 293.822 211.766 327.387C149.9 353.823 111.159 369.562 74.3413 383.217C19.5459 403.54 0.396798 412.33 0.866506 416.944C1.0734 418.976 2.99879 419.28 4.44721 417.509C5.70344 415.973 13.1445 413.089 58.9486 396.391C97.2938 382.411 125.538 371.432 182.271 348.454C309.548 296.906 321.399 292.774 520.573 230.52C802.974 142.253 1033.99 87.1379 1257.79 54.6397C1470.32 23.7787 1646.47 9.61915 1693.05 19.6501C1700.75 21.3071 1700.76 21.0962 1692.67 25.867C1673.85 36.9715 1630.65 51.9714 1544.85 77.1984C1446.86 106.007 1393.55 120.176 1233.47 159.954C1111.58 190.244 1108.65 191.029 948.236 236.543C780.201 284.219 706.327 306.416 606.281 339.294C570.951 350.903 567.97 351.808 524.29 364.174C437.375 388.781 363.101 413.486 290.597 441.904C266.991 451.156 262.92 454.657 269.855 459.74C275.438 463.832 317.071 451.588 419.835 415.633C546.663 371.258 564.581 365.608 638.194 346.766C743.73 319.754 832.006 300.22 906.204 287.462C980.548 274.677 1105.07 255.358 1172.64 246.127C1210.37 240.971 1356.92 225.017 1364.34 225.259L1370.1 225.447L1364.93 227.263C1355.93 230.427 1195.57 278.711 1125.01 299.503C1102.92 306.013 1071 315.197 1054.08 319.91C998.91 335.276 880.754 370.148 860.01 377.184C847.054 381.58 843.033 388.245 849.948 393.864C854.659 397.691 883.397 395.138 945.378 385.387C960.134 383.066 987.315 378.949 1005.78 376.239C1024.24 373.53 1051.79 368.967 1066.99 366.1C1082.19 363.233 1105.02 359.361 1117.71 357.496C1130.41 355.631 1146.39 353.193 1153.24 352.078L1165.69 350.052L1154.6 351.03C1140.07 352.31 1105.78 354.241 1076.67 355.417C1042.54 356.798 968.283 364.829 934.165 370.832C930.309 371.51 928.927 371.494 929.946 370.782C931.933 369.393 1017.83 344.151 1058.33 333.053C1180.74 299.516 1389.42 236.362 1399.53 229.795C1408.5 223.968 1406.92 215.532 1396.26 212.313C1377.15 206.545 1208.19 225.181 1057.63 249.664C1044.73 251.762 1014.55 256.583 990.577 260.378C900.408 274.648 812.03 290.983 778.924 299.5C776.837 300.037 775.351 300.189 775.623 299.839C776.717 298.427 1007.14 233.072 1096.63 208.79C1116.87 203.298 1175.59 188.378 1227.12 175.631C1406.22 131.329 1447.5 120.399 1555.27 88.7425C1688.34 49.6538 1723.91 33.2558 1714.28 15.4301C1706.27 0.588301 1668.65 -2.71509 1565.46 2.36303C1540.78 3.57753 1391.32 18.1554 1353.53 23.0352Z" fill="#F0EADD"/>
</svg>
