<svg width="942" height="364" viewBox="0 0 942 364" fill="none" xmlns="http://www.w3.org/2000/svg">
<path opacity="0.2" fill-rule="evenodd" clip-rule="evenodd" d="M579.525 -73.9649C390.982 -49.6227 258.26 -23.8312 74.8666 24.1017C-75.9799 63.5286 -175.59 93.2272 -345.117 149.32C-444.803 182.304 -483.684 196.821 -562.234 230.387C-624.1 256.823 -662.841 272.562 -699.659 286.217C-754.454 306.54 -773.603 315.33 -773.133 319.943C-772.927 321.976 -771.001 322.279 -769.553 320.509C-768.297 318.973 -760.855 316.089 -715.051 299.39C-676.706 285.41 -648.462 274.432 -591.729 251.454C-464.452 199.906 -452.601 195.773 -253.427 133.52C28.9735 45.2527 259.992 -9.86218 483.795 -42.3604C696.319 -73.2214 872.467 -87.381 919.048 -77.35C926.745 -75.6931 926.758 -75.9039 918.671 -71.1331C899.85 -60.0286 856.654 -45.0287 770.847 -19.8017C672.857 9.00705 619.545 23.1756 459.472 62.9537C337.58 93.2439 334.654 94.0289 174.236 139.543C6.20149 187.218 -67.6731 209.416 -167.719 242.293C-203.049 253.903 -206.03 254.808 -249.71 267.174C-336.625 291.781 -410.899 316.486 -483.403 344.904C-507.009 354.156 -511.08 357.657 -504.145 362.74C-498.562 366.832 -456.929 354.588 -354.165 318.633C-227.337 274.258 -209.419 268.608 -135.806 249.766C-30.2696 222.754 58.0059 203.22 132.204 190.462C206.548 177.677 331.075 158.358 398.635 149.127C436.369 143.971 582.924 128.017 590.338 128.259L596.102 128.447L590.932 130.263C581.929 133.427 421.569 181.711 351.012 202.503C328.919 209.013 296.997 218.196 280.075 222.91C224.91 238.276 106.754 273.148 86.0105 280.184C73.0536 284.58 69.0328 291.245 75.9483 296.864C80.6594 300.691 109.397 298.138 171.378 288.387C186.134 286.066 213.315 281.949 231.779 279.239C250.244 276.53 277.788 271.967 292.99 269.1C308.192 266.233 331.016 262.36 343.711 260.496C356.406 258.631 372.395 256.193 379.242 255.078L391.692 253.052L380.596 254.03C366.072 255.31 331.782 257.24 302.674 258.417C268.537 259.797 194.283 267.829 160.165 273.832C156.309 274.51 154.927 274.494 155.946 273.782C157.933 272.393 243.827 247.151 284.334 236.053C406.744 202.516 615.421 139.362 625.533 132.794C634.504 126.968 632.925 118.532 622.261 115.313C603.154 109.545 434.194 128.181 283.633 152.664C270.728 154.762 240.553 159.583 216.577 163.378C126.408 177.648 38.0302 193.983 4.92421 202.5C2.83708 203.037 1.35139 203.189 1.62339 202.839C2.71706 201.427 233.141 136.071 322.635 111.79C342.871 106.298 401.589 91.3777 453.118 78.6308C632.219 34.3286 673.499 23.3985 781.27 -8.25763C914.345 -47.3464 949.912 -63.7443 940.283 -81.57C932.265 -96.4118 894.645 -99.7152 791.461 -94.6371C766.777 -93.4226 617.317 -78.8447 579.525 -73.9649Z" fill="#F0EADD"/>
</svg>
