<svg width="26" height="26" viewBox="0 0 26 26" fill="none" xmlns="http://www.w3.org/2000/svg">
<path d="M2.53857 5.41547C2.53857 4.75014 2.77419 4.20125 3.24541 3.7688C3.71663 3.33634 4.32924 3.12012 5.08319 3.12012C5.82369 3.12012 6.42281 3.33301 6.88058 3.75882C7.35179 4.19794 7.58741 4.7701 7.58741 5.47535C7.58741 6.11406 7.35854 6.6463 6.90077 7.07212C6.42955 7.51123 5.81022 7.73078 5.0428 7.73078H5.0226C4.2821 7.73078 3.68298 7.51123 3.22522 7.07212C2.76745 6.63301 2.53857 6.08078 2.53857 5.41547ZM2.80111 22.8801V9.54711H7.28448V22.8801H2.80111ZM9.76851 22.8801H14.2519V15.4352C14.2519 14.9695 14.3057 14.6102 14.4134 14.3574C14.6019 13.9049 14.888 13.5224 15.2717 13.2097C15.6555 12.897 16.1368 12.7406 16.7157 12.7406C18.2236 12.7406 18.9776 13.7453 18.9776 15.7545V22.8801H23.461V15.2356C23.461 13.2662 22.9897 11.7726 22.0473 10.7547C21.1048 9.73672 19.8595 9.22775 18.3111 9.22775C16.5743 9.22775 15.2213 9.96626 14.2519 11.4433V11.4832H14.2317L14.2519 11.4433V9.54711H9.76851C9.79543 9.97291 9.8089 11.2969 9.8089 13.5191C9.8089 15.7412 9.79543 18.8616 9.76851 22.8801Z" fill="#ED705A"/>
</svg>
